HIERARCHY
ROOT hip
{
  OFFSET 0 0 0
  CHANNELS 6 Xposition Yposition Zposition Zrotation Yrotation Xrotation
  JOINT abdomen
  {
    OFFSET 0 20.6881 -0.73152
    CHANNELS 3 Zrotation Xrotation Yrotation
    JOINT chest
    {
      OFFSET 0 11.7043 -0.48768
      CHANNELS 3 Zrotation Xrotation Yrotation
      JOINT neck
      {
        OFFSET 0 22.1894 -2.19456
        CHANNELS 3 Zrotation Xrotation Yrotation
        JOINT head
        {
          OFFSET -0.24384 7.07133 1.2192
          CHANNELS 3 Zrotation Xrotation Yrotation
          JOINT leftEye
          {
            OFFSET 4.14528 8.04674 8.04672
            CHANNELS 3 Zrotation Xrotation Yrotation
            End Site
            {
              OFFSET 1 0 0
            }
          }
          JOINT rightEye
          {
            OFFSET -3.6576 8.04674 8.04672
            CHANNELS 3 Zrotation Xrotation Yrotation
            End Site
            {
              OFFSET 1 0 0
            }
          }
        }
      }
      JOINT rCollar
      {
        OFFSET -2.68224 19.2634 -4.8768
        CHANNELS 3 Zrotation Xrotation Yrotation
        JOINT rShldr
        {
          OFFSET -8.77824 -1.95073 1.46304
          CHANNELS 3 Zrotation Xrotation Yrotation
          JOINT rForeArm
          {
            OFFSET -28.1742 -1.7115 0.48768
            CHANNELS 3 Zrotation Xrotation Yrotation
            JOINT rHand
            {
              OFFSET -22.5879 0.773209 7.07136
              CHANNELS 3 Zrotation Xrotation Yrotation
              JOINT rThumb1
              {
                OFFSET -1.2192 -0.487915 3.41376
                CHANNELS 3 Zrotation Xrotation Yrotation
                JOINT rThumb2
                {
                  OFFSET -3.37035 -0.52449 3.41376
                  CHANNELS 3 Zrotation Xrotation Yrotation
                  End Site
                  {
                    OFFSET -1.78271 -1.18214 1.43049
                  }
                }
              }
              JOINT rIndex1
              {
                OFFSET -7.75947 0.938293 5.60832
                CHANNELS 3 Zrotation Xrotation Yrotation
                JOINT rIndex2
                {
                  OFFSET -2.54057 -0.884171 1.56538
                  CHANNELS 3 Zrotation Xrotation Yrotation
                  End Site
                  {
                    OFFSET -1.62519 -0.234802 1.16502
                  }
                }
              }
              JOINT rMid1
              {
                OFFSET -8.24714 1.18213 3.41376
                CHANNELS 3 Zrotation Xrotation Yrotation
                JOINT rMid2
                {
                  OFFSET -3.10165 -0.590103 1.0647
                  CHANNELS 3 Zrotation Xrotation Yrotation
                  End Site
                  {
                    OFFSET -2.48547 -0.328903 0.83742
                  }
                }
              }
              JOINT rRing1
              {
                OFFSET -8.82822 0.546677 1.51678
                CHANNELS 3 Zrotation Xrotation Yrotation
                JOINT rRing2
                {
                  OFFSET -2.60934 -0.819778 -0.0198488
                  CHANNELS 3 Zrotation Xrotation Yrotation
                  End Site
                  {
                    OFFSET -2.33842 -0.294052 0.168128
                  }
                }
              }
              JOINT rPinky1
              {
                OFFSET -8.27202 -0.0477905 -0.4584
                CHANNELS 3 Zrotation Xrotation Yrotation
                JOINT rPinky2
                {
                  OFFSET -1.82734 -0.647385 -0.700984
                  CHANNELS 3 Zrotation Xrotation Yrotation
                  End Site
                  {
                    OFFSET -1.69225 -0.51767 -0.607171
                  }
                }
              }
            }
          }
        }
      }
      JOINT lCollar
      {
        OFFSET 2.68224 19.2634 -4.8768
        CHANNELS 3 Zrotation Xrotation Yrotation
        JOINT lShldr
        {
          OFFSET 8.77824 -1.95073 1.46304
          CHANNELS 3 Zrotation Xrotation Yrotation
          JOINT lForeArm
          {
            OFFSET 28.1742 -1.7115 0.48768
            CHANNELS 3 Zrotation Xrotation Yrotation
            JOINT lHand
            {
              OFFSET 22.5879 0.773209 7.07136
              CHANNELS 3 Zrotation Xrotation Yrotation
              JOINT lThumb1
              {
                OFFSET 1.2192 -0.487915 3.41376
                CHANNELS 3 Zrotation Xrotation Yrotation
                JOINT lThumb2
                {
                  OFFSET 3.37035 -0.52449 3.41376
                  CHANNELS 3 Zrotation Xrotation Yrotation
                  End Site
                  {
                    OFFSET 1.78271 -1.18214 1.43049
                  }
                }
              }
              JOINT lIndex1
              {
                OFFSET 7.75947 0.938293 5.60832
                CHANNELS 3 Zrotation Xrotation Yrotation
                JOINT lIndex2
                {
                  OFFSET 2.54057 -0.884171 1.56538
                  CHANNELS 3 Zrotation Xrotation Yrotation
                  End Site
                  {
                    OFFSET 1.62519 -0.234802 1.16502
                  }
                }
              }
              JOINT lMid1
              {
                OFFSET 8.24714 1.18213 3.41376
                CHANNELS 3 Zrotation Xrotation Yrotation
                JOINT lMid2
                {
                  OFFSET 3.10165 -0.590103 1.0647
                  CHANNELS 3 Zrotation Xrotation Yrotation
                  End Site
                  {
                    OFFSET 2.48547 -0.328903 0.83742
                  }
                }
              }
              JOINT lRing1
              {
                OFFSET 8.82822 0.546677 1.51678
                CHANNELS 3 Zrotation Xrotation Yrotation
                JOINT lRing2
                {
                  OFFSET 2.60934 -0.819778 -0.0198488
                  CHANNELS 3 Zrotation Xrotation Yrotation
                  End Site
                  {
                    OFFSET 2.33842 -0.294052 0.168128
                  }
                }
              }
              JOINT lPinky1
              {
                OFFSET 8.27202 -0.0477905 -0.4584
                CHANNELS 3 Zrotation Xrotation Yrotation
                JOINT lPinky2
                {
                  OFFSET 1.82734 -0.647385 -0.700984
                  CHANNELS 3 Zrotation Xrotation Yrotation
                  End Site
                  {
                    OFFSET 1.69225 -0.51767 -0.607171
                  }
                }
              }
            }
          }
        }
      }
    }
  }
  JOINT rButtock
  {
    OFFSET -8.77824 4.35084 1.2192
    CHANNELS 3 Zrotation Xrotation Yrotation
    JOINT rThigh
    {
      OFFSET 0 -1.70687 -2.19456
      CHANNELS 3 Zrotation Xrotation Yrotation
      JOINT rShin
      {
        OFFSET 0 -36.8199 0.73152
        CHANNELS 3 Zrotation Xrotation Yrotation
        JOINT rFoot
        {
          OFFSET 0.73152 -45.1104 -5.12064
          CHANNELS 3 Zrotation Xrotation Yrotation
          End Site
          {
            OFFSET -1.1221 -3.69964 12.103
          }
        }
      }
    }
  }
  JOINT lButtock
  {
    OFFSET 8.77824 4.35084 1.2192
    CHANNELS 3 Zrotation Xrotation Yrotation
    JOINT lThigh
    {
      OFFSET 0 -1.70687 -2.19456
      CHANNELS 3 Zrotation Xrotation Yrotation
      JOINT lShin
      {
        OFFSET 0 -36.8199 0.73152
        CHANNELS 3 Zrotation Xrotation Yrotation
        JOINT lFoot
        {
          OFFSET -0.73152 -45.1104 -5.12064
          CHANNELS 3 Zrotation Xrotation Yrotation
          End Site
          {
            OFFSET 1.1221 -3.69964 12.103
          }
        }
      }
    }
  }
}
MOTION
Frames:	8
Frame Time:	0.00833333
89.1492 83.1996 123.548 172.149 -10.1918 -153.054 -5.2082 -15.9235 1.88711 3.66151 12.8055 0.0990082 -0.854998 11.6854 -0.950796 5.959 -1.49953 -4.54356 -0.0 0.0 0.0 -0.0 0.0 0.0 2.15238e-13 -2.47822e-13 -4.08794e-13 78.055 13.1528 2.62445 -17.8598 -10.5373 33.7051 -0.0227489 -4.3013 -0.605658 1.11544e-09 -3.98872e-09 -5.41676e-10 1.93937e-09 -6.90512e-09 -9.36889e-10 1.11545e-09 -3.98871e-09 -5.41692e-10 7.73091 5.47488 0.417314 1.11544e-09 -3.98872e-09 -5.41683e-10 2.90554 0.965183 0.102902 1.11545e-09 -3.98871e-09 -5.41677e-10 10.2786 0.731801 0.0259123 1.11544e-09 -3.98871e-09 -5.41667e-10 2.22167 -0.733487 -0.20892 2.15111e-13 -2.47849e-13 -4.08971e-13 -71.5413 25.7 -6.01195 13.8529 -6.83649 -25.2585 0.00327692 1.63232 -0.229471 2.67691e-10 -5.93336e-10 -3.63765e-09 4.51331e-10 -1.02175e-09 -6.29075e-09 2.67684e-10 -5.9334e-10 -3.63764e-09 -7.73091 5.47488 -0.417314 2.67691e-10 -5.93342e-10 -3.63766e-09 -2.90554 0.965183 -0.102902 2.67686e-10 -5.93342e-10 -3.63765e-09 -10.2786 0.731801 -0.0259123 2.67696e-10 -5.93341e-10 -3.63766e-09 -2.22167 -0.733487 0.20892 -2.03217e-16 0.0 -3.88251e-19 -5.74915 -29.2703 8.79356 0.0872932 17.3842 1.03826 -7.39009 -22.0302 -17.778 2.03217e-16 0.0 3.88251e-19 -20.0836 -74.8465 -30.2885 0.994683 59.1834 -1.57405 -0.0185499 -6.91824 -2.00088
88.9635 83.0293 123.773 172.526 -9.6088 -151.785 -5.3917 -15.8669 2.01412 3.66972 12.7455 0.138297 -0.796124 11.683 -1.13359 6.14327 -1.43141 -4.93025 -0.0 0.0 0.0 -0.0 0.0 0.0 2.82328e-13 -4.16639e-13 -2.60656e-13 78.1302 13.2145 2.48959 -17.9371 -10.6193 33.8793 -0.0233732 -4.36017 -0.613979 3.95057e-11 -3.09039e-09 5.79338e-11 7.82349e-11 -5.34696e-09 1.0044e-10 3.95092e-11 -3.09038e-09 5.79179e-11 7.73091 5.47488 0.417314 3.95035e-11 -3.09038e-09 5.79274e-11 2.90554 0.965183 0.102902 3.95115e-11 -3.09038e-09 5.79338e-11 10.2786 0.731801 0.0259123 3.95017e-11 -3.09038e-09 5.79433e-11 2.22167 -0.733487 -0.20892 2.8219e-13 -4.16667e-13 -2.60855e-13 -71.3945 25.788 -6.02841 13.8821 -6.85979 -25.3173 0.00331807 1.64453 -0.231188 -6.47598e-10 -1.79199e-09 -4.1571e-09 -1.13221e-09 -3.09472e-09 -7.18494e-09 -6.47604e-10 -1.79199e-09 -4.15709e-09 -7.73091 5.47488 -0.417314 -6.47598e-10 -1.79199e-09 -4.15711e-09 -2.90554 0.965183 -0.102902 -6.47603e-10 -1.79199e-09 -4.1571e-09 -10.2786 0.731801 -0.0259123 -6.47593e-10 -1.79199e-09 -4.15711e-09 -2.22167 -0.733487 0.20892 -2.03217e-16 0.0 -3.88251e-19 -5.90658 -29.3907 8.802 0.0889025 17.5629 1.04343 -7.45527 -22.0356 -17.9117 2.03217e-16 0.0 3.88251e-19 -20.7888 -75.0175 -30.737 1.01363 59.4952 -1.59207 -0.0354543 -6.98167 -2.07016
88.6541 83.0601 123.473 172.557 -9.3737 -151.887 -5.6163 -15.4063 2.00895 3.77582 12.6992 0.12837 -0.738118 11.5696 -1.21935 6.11205 -1.5879 -5.04024 -0.0 0.0 0.0 -0.0 0.0 0.0 2.32735e-13 -4.32469e-13 -2.73923e-14 78.0678 13.2917 2.51467 -17.9787 -10.6635 33.9734 -0.0241528 -4.43271 -0.624235 -6.93758e-10 -1.07432e-09 7.96649e-10 -1.19527e-09 -1.85371e-09 1.3795e-09 -6.93755e-10 -1.07431e-09 7.96633e-10 7.73091 5.47488 0.417314 -6.9376e-10 -1.07432e-09 7.96644e-10 2.90554 0.965183 0.102902 -6.93752e-10 -1.07432e-09 7.96649e-10 10.2786 0.731801 0.0259123 -6.93762e-10 -1.07432e-09 7.9666e-10 2.22167 -0.733487 -0.20892 2.32571e-13 -4.32494e-13 -2.75981e-14 -71.2828 25.7955 -6.13797 13.8882 -6.86462 -25.3296 0.00352926 1.6993 -0.238891 -9.21348e-10 -2.19999e-09 -2.79687e-09 -1.60117e-09 -3.80187e-09 -4.83077e-09 -9.21353e-10 -2.2e-09 -2.79686e-09 -7.73091 5.47488 -0.417314 -9.21349e-10 -2.2e-09 -2.79688e-09 -2.90554 0.965183 -0.102902 -9.21353e-10 -2.2e-09 -2.79687e-09 -10.2786 0.731801 -0.0259123 -9.21343e-10 -2.2e-09 -2.79688e-09 -2.22167 -0.733487 0.20892 -2.03217e-16 0.0 -3.88251e-19 -6.0502 -28.825 8.97517 0.087067 17.3191 1.04342 -7.55348 -21.9101 -18.287 2.03217e-16 0.0 3.88251e-19 -21.1794 -74.6379 -30.8628 1.02325 59.6538 -1.60243 -0.0351567 -7.21268 -2.0568
88.3595 83.0151 123.285 172.615 -9.2324 -151.718 -5.87562 -14.6845 1.92351 3.9488 12.6676 0.0875999 -0.676935 11.3817 -1.24548 5.94141 -1.88667 -4.97805 -0.0 0.0 0.0 -0.0 0.0 0.0 1.09091e-13 -3.58002e-13 2.82041e-13 77.9189 13.3732 2.63811 -17.9986 -10.6849 34.0182 -0.0250295 -4.5127 -0.635546 -1.32548e-09 1.82572e-09 1.68132e-09 -2.29661e-09 3.17011e-09 2.91175e-09 -1.32548e-09 1.82572e-09 1.68131e-09 7.73091 5.47488 0.417314 -1.32549e-09 1.82572e-09 1.68132e-09 2.90554 0.965183 0.102902 -1.32548e-09 1.82572e-09 1.68132e-09 10.2786 0.731801 0.0259123 -1.32549e-09 1.82572e-09 1.68133e-09 2.22167 -0.733487 -0.20892 1.08889e-13 -3.58022e-13 2.81836e-13 -71.1952 25.7455 -6.31152 13.8797 -6.85781 -25.3124 0.00390194 1.78745 -0.251292 -8.80412e-10 -2.18922e-09 -1.95834e-10 -1.52245e-09 -3.78586e-09 -3.31883e-10 -8.80413e-10 -2.18922e-09 -1.95822e-10 -7.73091 5.47488 -0.417314 -8.80411e-10 -2.18922e-09 -1.95843e-10 -2.90554 0.965183 -0.102902 -8.80415e-10 -2.18922e-09 -1.95837e-10 -10.2786 0.731801 -0.0259123 -8.80406e-10 -2.18922e-09 -1.95848e-10 -2.22167 -0.733487 0.20892 -2.03217e-16 0.0 -3.88251e-19 -6.20054 -27.8134 9.24565 0.0829787 16.8044 1.03998 -7.66823 -21.6892 -18.8193 2.03217e-16 0.0 3.88251e-19 -21.3655 -73.9035 -30.7685 1.02665 59.7124 -1.60751 -0.0241848 -7.53614 -1.99729
88.0423 82.963 123.112 172.743 -8.9698 -151.387 -6.13385 -13.9794 1.85 4.12899 12.6462 0.0492511 -0.619145 11.1899 -1.24488 5.75162 -2.21595 -4.85379 -0.0 0.0 0.0 -0.0 0.0 0.0 -2.49195e-14 -2.50039e-13 5.53897e-13 77.7644 13.4576 2.76287 -18.0141 -10.7017 34.0526 -0.0258011 -4.58118 -0.645232 -1.77898e-09 4.52718e-09 2.38775e-09 -3.08941e-09 7.84936e-09 4.13538e-09 -1.77897e-09 4.52718e-09 2.38774e-09 7.73091 5.47488 0.417314 -1.77898e-09 4.52718e-09 2.38776e-09 2.90554 0.965183 0.102902 -1.77897e-09 4.52718e-09 2.38776e-09 10.2786 0.731801 0.0259123 -1.77898e-09 4.52718e-09 2.38777e-09 2.22167 -0.733487 -0.20892 -2.51517e-14 -2.50054e-13 5.53696e-13 -71.1112 25.692 -6.49184 13.8653 -6.84634 -25.2836 0.00427171 1.86723 -0.262516 -6.6525e-10 -1.87622e-09 2.47052e-09 -1.14231e-09 -3.247e-09 4.27912e-09 -6.65248e-10 -1.87622e-09 2.47053e-09 -7.73091 5.47488 -0.417314 -6.65248e-10 -1.87622e-09 2.47051e-09 -2.90554 0.965183 -0.102902 -6.65251e-10 -1.87622e-09 2.47051e-09 -10.2786 0.731801 -0.0259123 -6.65244e-10 -1.87622e-09 2.4705e-09 -2.22167 -0.733487 0.20892 -2.03217e-16 0.0 -3.88251e-19 -6.34686 -26.789 9.56676 0.0784278 16.2624 1.03571 -7.77166 -21.4419 -19.3578 2.03217e-16 0.0 3.88251e-19 -21.433 -73.1468 -30.5658 1.02876 59.7494 -1.61124 -0.013717 -7.91347 -1.93411
87.5799 83.2009 122.346 172.234 -9.575 -152.809 -6.36051 -13.5694 1.87885 4.25673 12.6301 0.046579 -0.571602 11.0646 -1.25035 5.66043 -2.46381 -4.77748 -0.0 0.0 0.0 -0.0 0.0 0.0 -1.05613e-13 -1.65385e-13 6.74427e-13 77.6859 13.5436 2.79178 -18.0423 -10.7323 34.1153 -0.0262407 -4.6192 -0.650611 -1.97754e-09 5.9475e-09 2.59176e-09 -3.43731e-09 1.03089e-08 4.48858e-09 -1.97754e-09 5.9475e-09 2.59175e-09 7.73091 5.47488 0.417314 -1.97754e-09 5.9475e-09 2.59177e-09 2.90554 0.965183 0.102902 -1.97753e-09 5.9475e-09 2.59176e-09 10.2786 0.731801 0.0259123 -1.97755e-09 5.9475e-09 2.59178e-09 2.22167 -0.733487 -0.20892 -1.05851e-13 -1.65394e-13 6.74228e-13 -71.0093 25.689 -6.62204 13.8538 -6.83719 -25.2605 0.00441489 1.89685 -0.266684 -4.16323e-10 -1.37756e-09 4.02668e-09 -7.07041e-10 -2.3856e-09 6.96964e-09 -4.1632e-10 -1.37756e-09 4.02669e-09 -7.73091 5.47488 -0.417314 -4.16321e-10 -1.37756e-09 4.02667e-09 -2.90554 0.965183 -0.102902 -4.16323e-10 -1.37756e-09 4.02668e-09 -10.2786 0.731801 -0.0259123 -4.16317e-10 -1.37756e-09 4.02667e-09 -2.22167 -0.733487 0.20892 -2.03217e-16 0.0 -3.88251e-19 -6.46563 -26.1832 9.89341 0.0753445 15.9367 1.03302 -7.84028 -21.2378 -19.7535 2.03217e-16 0.0 3.88251e-19 -21.4412 -72.6999 -30.3335 1.03461 59.8429 -1.61764 -0.0160685 -8.30609 -1.90988
87.3967 83.0869 122.312 172.629 -9.0417 -152.102 -6.53658 -13.6029 2.07855 4.31218 12.6308 0.101491 -0.54067 11.0227 -1.26047 5.71943 -2.58666 -4.76112 -0.0 0.0 0.0 -0.0 0.0 0.0 -1.08017e-13 -1.09479e-13 5.60263e-13 77.7182 13.6262 2.68648 -18.092 -10.7862 34.2266 -0.0261028 -4.60694 -0.648876 -1.81102e-09 5.51113e-09 2.0007e-09 -3.14797e-09 9.55123e-09 3.46428e-09 -1.81102e-09 5.51113e-09 2.00069e-09 7.73091 5.47488 0.417314 -1.81102e-09 5.51113e-09 2.0007e-09 2.90554 0.965183 0.102902 -1.81101e-09 5.51113e-09 2.0007e-09 10.2786 0.731801 0.0259123 -1.81103e-09 5.51113e-09 2.00071e-09 2.22167 -0.733487 -0.20892 -1.0822e-13 -1.09483e-13 5.60066e-13 -70.8647 25.7813 -6.69914 13.8483 -6.83275 -25.2495 0.00414082 1.8416 -0.258909 -8.4327e-11 -4.64142e-10 4.0025e-09 -1.32724e-10 -8.04531e-10 6.92621e-09 -8.43237e-11 -4.64139e-10 4.00252e-09 -7.73091 5.47488 -0.417314 -8.43236e-11 -4.64136e-10 4.00249e-09 -2.90554 0.965183 -0.102902 -8.43252e-11 -4.64138e-10 4.0025e-09 -10.2786 0.731801 -0.0259123 -8.43214e-11 -4.64137e-10 4.00249e-09 -2.22167 -0.733487 0.20892 -2.03217e-16 0.0 -3.88251e-19 -6.5102 -26.2167 10.2436 0.0745883 15.9441 1.03327 -7.87884 -21.1341 -19.9529 2.03217e-16 0.0 3.88251e-19 -21.2937 -72.7344 -29.9955 1.04715 60.036 -1.62897 -0.0443076 -8.74302 -1.96153
87.0058 83.084 122.169 172.772 -8.6461 -151.774 -6.67988 -13.9062 2.38642 4.32844 12.6465 0.191909 -0.521056 11.0271 -1.26115 5.85886 -2.64877 -4.75176 -0.0 0.0 0.0 -0.0 0.0 0.0 -6.87584e-14 -5.52635e-14 2.8975e-13 77.8141 13.7077 2.50282 -18.1525 -10.8519 34.3626 -0.0255628 -4.55942 -0.642154 -1.35024e-09 3.89105e-09 8.56192e-10 -2.34611e-09 6.74233e-09 1.48119e-09 -1.35022e-09 3.89105e-09 8.56192e-10 7.73091 5.47488 0.417314 -1.35023e-09 3.89105e-09 8.56201e-10 2.90554 0.965183 0.102902 -1.35022e-09 3.89105e-09 8.56199e-10 10.2786 0.731801 0.0259123 -1.35024e-09 3.89105e-09 8.56204e-10 2.22167 -0.733487 -0.20892 -6.89015e-14 -5.52614e-14 2.89555e-13 -70.6951 25.93 -6.7496 13.8438 -6.82913 -25.2405 0.00364348 1.7316 -0.243435 3.76732e-10 8.39475e-10 3.07714e-09 6.62125e-10 1.45285e-09 5.32337e-09 3.76733e-10 8.3948e-10 3.07716e-09 -7.73091 5.47488 -0.417314 3.76735e-10 8.39482e-10 3.07714e-09 -2.90554 0.965183 -0.102902 3.76735e-10 8.3948e-10 3.07714e-09 -10.2786 0.731801 -0.0259123 3.76736e-10 8.39481e-10 3.07713e-09 -2.22167 -0.733487 0.20892 -2.03217e-16 0.0 -3.88251e-19 -6.49524 -26.6222 10.6354 0.075035 16.1374 1.0349 -7.89838 -21.0811 -20.041 2.03217e-16 0.0 3.88251e-19 -20.9776 -73.0446 -29.5225 1.0633 60.2795 -1.64283 -0.0902584 -9.23167 -2.05812
